<?xml version="1.0" standalone="no"?><!DOCTYPE svg PUBLIC "-//W3C//DTD SVG 1.1//EN" "http://www.w3.org/Graphics/SVG/1.1/DTD/svg11.dtd"><svg t="1729674887663" class="icon" viewBox="0 0 1024 1024" version="1.1" xmlns="http://www.w3.org/2000/svg" p-id="1149" xmlns:xlink="http://www.w3.org/1999/xlink" width="200" height="200"><path d="M323.09 190.6C143.25 294.43 81.63 524.39 185.46 704.23c103.83 179.84 333.79 241.46 513.63 137.63 179.84-103.83 241.46-333.79 137.63-513.63-104-179.61-333.75-241.17-513.63-137.63" fill="#2CAAFF" p-id="1150"></path><path d="M852.33 243.74c-7.31-1.53-12.81 6.39-9.06 12.85 0.04 0.06 0.07 0.12 0.11 0.19 42.98 74.45-79.05 236.93-278.74 352.22-199.69 115.29-401.41 139.74-444.4 65.28-0.04-0.06-0.07-0.12-0.11-0.19-3.71-6.48-13.33-5.68-15.65 1.42-9.63 29.36-9.33 55.3 2.53 75.85 48.13 83.37 273.42 54.96 497.02-74.14 223.6-129.1 360.85-309.99 312.72-393.36-11.86-20.54-34.18-33.77-64.42-40.12z" fill="#FFDD00" p-id="1151"></path><path d="M532 320m-101 0a101 101 0 1 0 202 0 101 101 0 1 0-202 0Z" fill="#FFFFFF" p-id="1152"></path><path d="M393.5 508.5m-49.5 0a49.5 49.5 0 1 0 99 0 49.5 49.5 0 1 0-99 0Z" fill="#FFFFFF" p-id="1153"></path></svg>